<svg width="1320" height="800" viewBox="0 0 1320 800" fill="none" xmlns="http://www.w3.org/2000/svg">
  <defs>
    <linearGradient id="bg" x1="80" y1="60" x2="1240" y2="760" gradientUnits="userSpaceOnUse">
      <stop stop-color="#0F131A"/>
      <stop offset="1" stop-color="#161A21"/>
    </linearGradient>
    <linearGradient id="panel" x1="0" y1="0" x2="0" y2="1">
      <stop stop-color="#171D24"/>
      <stop offset="1" stop-color="#14191F"/>
    </linearGradient>
    <linearGradient id="goldPanel" x1="0" y1="0" x2="1" y2="1">
      <stop stop-color="#201C11"/>
      <stop offset="1" stop-color="#1A1710"/>
    </linearGradient>
    <filter id="shadow" x="0" y="0" width="1320" height="800" filterUnits="userSpaceOnUse" color-interpolation-filters="sRGB">
      <feDropShadow dx="0" dy="18" stdDeviation="28" flood-color="#050709" flood-opacity="0.38"/>
    </filter>
  </defs>

  <rect width="1320" height="800" rx="32" fill="url(#bg)"/>

  <g filter="url(#shadow)">
    <rect x="20" y="20" width="1280" height="760" rx="30" fill="#11151B"/>
  </g>

  <g>
    <circle cx="78" cy="78" r="38" fill="#F2F4F7"/>
    <rect x="40" y="93" width="76" height="23" fill="#E8A93B"/>
    <rect x="40" y="61" width="76" height="8" fill="#171B22"/>
    <rect x="40" y="69" width="76" height="6" fill="#F2F4F7"/>
  </g>

  <text x="124" y="74" fill="#F7F7F2" font-size="26" font-family="'PingFang SC','Microsoft YaHei',sans-serif">Linux.do Accelerator</text>
  <text x="124" y="118" fill="#97A1AC" font-size="16" font-family="'PingFang SC','Microsoft YaHei',sans-serif">linux.do 本地加速 / CLI + Desktop</text>

  <rect x="470" y="42" width="90" height="40" rx="20" fill="#3C4650" stroke="#66727E"/>
  <text x="493" y="68" fill="#EAF0F4" font-size="16" font-family="'PingFang SC','Microsoft YaHei',sans-serif">待启动</text>

  <rect x="20" y="184" width="620" height="308" rx="28" fill="url(#panel)" stroke="#3C4752"/>
  <text x="42" y="228" fill="#F2B84E" font-size="18" font-weight="700" font-family="'PingFang SC','Microsoft YaHei',sans-serif">操作</text>
  <text x="42" y="280" fill="#F2F4F6" font-size="32" font-weight="700" font-family="'PingFang SC','Microsoft YaHei',sans-serif">加速已停止</text>

  <rect x="42" y="320" width="576" height="76" rx="6" fill="#E7E7E7"/>
  <text x="60" y="368" fill="#171A1F" font-size="22" font-weight="700" font-family="'PingFang SC','Microsoft YaHei',sans-serif">开始加速</text>

  <rect x="42" y="412" width="108" height="56" rx="6" fill="#E7E7E7"/>
  <rect x="162" y="412" width="108" height="56" rx="6" fill="#E7E7E7"/>
  <rect x="282" y="412" width="108" height="56" rx="6" fill="#E7E7E7"/>
  <text x="74" y="447" fill="#171A1F" font-size="18" font-weight="700" font-family="'PingFang SC','Microsoft YaHei',sans-serif">最小化</text>
  <text x="197" y="447" fill="#171A1F" font-size="18" font-weight="700" font-family="'PingFang SC','Microsoft YaHei',sans-serif">设置</text>
  <text x="320" y="447" fill="#171A1F" font-size="18" font-weight="700" font-family="'PingFang SC','Microsoft YaHei',sans-serif">关于</text>

  <rect x="660" y="184" width="640" height="318" rx="28" fill="url(#goldPanel)" stroke="#7A6426"/>
  <text x="690" y="228" fill="#F2B84E" font-size="18" font-weight="700" font-family="'PingFang SC','Microsoft YaHei',sans-serif">接管范围</text>

  <rect x="690" y="250" width="64" height="92" rx="16" fill="#262214" stroke="#6B5B2B"/>
  <rect x="764" y="250" width="64" height="92" rx="16" fill="#262214" stroke="#6B5B2B"/>
  <rect x="838" y="250" width="64" height="92" rx="16" fill="#262214" stroke="#6B5B2B"/>

  <text x="707" y="278" fill="#C0C7CD" font-size="15" font-family="'PingFang SC','Microsoft YaHei',sans-serif">域名</text>
  <text x="782" y="278" fill="#C0C7CD" font-size="15" font-family="'PingFang SC','Microsoft YaHei',sans-serif">DoH</text>
  <text x="853" y="278" fill="#C0C7CD" font-size="15" font-family="'PingFang SC','Microsoft YaHei',sans-serif">证书</text>

  <text x="708" y="324" fill="#F4E0B2" font-size="34" font-weight="700" font-family="'PingFang SC','Microsoft YaHei',sans-serif">35</text>
  <text x="782" y="324" fill="#F4E0B2" font-size="34" font-weight="700" font-family="'PingFang SC','Microsoft YaHei',sans-serif">3</text>
  <text x="858" y="324" fill="#F4E0B2" font-size="34" font-weight="700" font-family="'PingFang SC','Microsoft YaHei',sans-serif">4</text>

  <text x="690" y="388" fill="#BFC5CC" font-size="16" font-weight="700" font-family="'PingFang SC','Microsoft YaHei',sans-serif">上游</text>
  <text x="786" y="388" fill="#F1F4F6" font-size="16" font-family="'SFMono-Regular','Consolas',monospace">https://linux.do</text>
  <text x="690" y="432" fill="#BFC5CC" font-size="16" font-weight="700" font-family="'PingFang SC','Microsoft YaHei',sans-serif">DoH</text>
  <text x="786" y="432" fill="#F1F4F6" font-size="16" font-family="'SFMono-Regular','Consolas',monospace">https://aaa.ddd.oaifree.com/query-dns</text>

  <rect x="20" y="518" width="620" height="250" rx="28" fill="#151A22" stroke="#33404D"/>
  <text x="42" y="560" fill="#C4CBD2" font-size="18" font-weight="700" font-family="'PingFang SC','Microsoft YaHei',sans-serif">错误详情</text>
  <text x="42" y="612" fill="#EDF1F5" font-size="20" font-weight="700" font-family="'PingFang SC','Microsoft YaHei',sans-serif">当前没有错误。启动失败时会直接显示真实原因。</text>

  <rect x="660" y="518" width="640" height="250" rx="28" fill="#151D24" stroke="#31414F"/>
  <text x="690" y="560" fill="#80CFAF" font-size="18" font-weight="700" font-family="'PingFang SC','Microsoft YaHei',sans-serif">提示</text>
  <text x="690" y="620" fill="#F0F4F6" font-size="19" font-family="'PingFang SC','Microsoft YaHei',sans-serif">DoH、接管域名和证书 SAN 都放在同一个</text>
  <text x="690" y="650" fill="#F0F4F6" font-size="19" font-family="'PingFang SC','Microsoft YaHei',sans-serif">linuxdo-accelerator.toml 里，安装后直接改这一份就行。</text>
  <text x="690" y="704" fill="#A8B2BC" font-size="17" font-family="'PingFang SC','Microsoft YaHei',sans-serif">重签根证书后，浏览器最好完全退出再打开一次。</text>
</svg>
